<svg xmlns="http://www.w3.org/2000/svg" xmlns:xlink="http://www.w3.org/1999/xlink" width="363" zoomAndPan="magnify" viewBox="28 40 245 6" height="90" preserveAspectRatio="xMidYMid meet" version="1.0"><defs><g/><clipPath id="1f17b2d248"><rect x="0" width="197" y="0" height="72"/></clipPath><clipPath id="ecf7a5f94a"><path d="M 226.144531 20.460938 L 270.824219 20.460938 L 270.824219 71.097656 L 226.144531 71.097656 Z M 226.144531 20.460938 " clip-rule="nonzero"/></clipPath></defs><g transform="matrix(1, 0, 0, 1, 23, 15)"><g clip-path="url(#1f17b2d248)"><g fill="#ff5757" fill-opacity="1"><g transform="translate(1.228486, 53.518905)"><g><path d="M 3.625 0 L 3.625 -51.796875 C 3.90625 -51.972656 4.273438 -52.101562 4.734375 -52.1875 C 5.203125 -52.269531 5.609375 -52.3125 5.953125 -52.3125 C 7.503906 -52.3125 8.84375 -51.972656 9.96875 -51.296875 C 11.09375 -50.628906 12.128906 -49.601562 13.078125 -48.21875 C 14.023438 -46.84375 15.023438 -45.097656 16.078125 -42.984375 C 17.128906 -40.878906 18.335938 -38.398438 19.703125 -35.546875 C 21.066406 -32.703125 22.71875 -29.488281 24.65625 -25.90625 C 27.25 -21.101562 29.425781 -17.363281 31.1875 -14.6875 C 32.945312 -12.007812 34.378906 -10.066406 35.484375 -8.859375 C 36.410156 -7.859375 37.140625 -7.234375 37.671875 -6.984375 C 38.210938 -6.742188 38.601562 -6.675781 38.84375 -6.78125 C 39.082031 -6.882812 39.203125 -6.9375 39.203125 -6.9375 C 39.203125 -13.394531 38.835938 -19.273438 38.109375 -24.578125 C 37.390625 -29.878906 36.304688 -34.753906 34.859375 -39.203125 C 33.410156 -43.660156 31.582031 -47.859375 29.375 -51.796875 L 40.140625 -51.796875 L 40.140625 0 C 39.867188 0.132812 39.503906 0.253906 39.046875 0.359375 C 38.597656 0.460938 38.1875 0.515625 37.8125 0.515625 C 36.21875 0.515625 34.601562 -0.0859375 32.96875 -1.296875 C 31.332031 -2.503906 29.675781 -4.160156 28 -6.265625 C 26.320312 -8.367188 24.660156 -10.773438 23.015625 -13.484375 C 21.378906 -16.203125 19.769531 -19.082031 18.1875 -22.125 C 15.695312 -26.851562 13.691406 -30.757812 12.171875 -33.84375 C 10.648438 -36.9375 9.507812 -39.207031 8.75 -40.65625 C 8.03125 -42.039062 7.398438 -43.066406 6.859375 -43.734375 C 6.328125 -44.410156 5.894531 -44.851562 5.5625 -45.0625 C 5.238281 -45.269531 4.988281 -45.351562 4.8125 -45.3125 C 4.644531 -45.28125 4.5625 -45.265625 4.5625 -45.265625 C 4.5625 -38.671875 4.921875 -32.695312 5.640625 -27.34375 C 6.367188 -21.988281 7.46875 -17.078125 8.9375 -12.609375 C 10.40625 -8.140625 12.226562 -3.9375 14.40625 0 Z M 3.625 0 "/></g></g></g><g fill="#ff5757" fill-opacity="1"><g transform="translate(43.447323, 53.518905)"><g><path d="M 12.015625 0.515625 C 11.328125 0.515625 10.484375 0.425781 9.484375 0.25 C 8.484375 0.0820312 7.5 -0.300781 6.53125 -0.90625 C 5.5625 -1.507812 4.75 -2.484375 4.09375 -3.828125 C 3.4375 -5.179688 3.109375 -7.015625 3.109375 -9.328125 L 3.109375 -35.21875 L 10.625 -35.21875 L 10.625 -6.734375 C 10.625 -5.078125 11.007812 -3.84375 11.78125 -3.03125 C 12.5625 -2.21875 13.570312 -1.8125 14.8125 -1.8125 C 16.195312 -1.8125 17.492188 -2.191406 18.703125 -2.953125 C 19.910156 -3.710938 20.960938 -4.738281 21.859375 -6.03125 C 22.753906 -7.332031 23.453125 -8.8125 23.953125 -10.46875 C 24.453125 -12.125 24.703125 -13.847656 24.703125 -15.640625 L 24.703125 -35.21875 L 32.21875 -35.21875 L 32.21875 0 L 24.703125 0 L 24.703125 -10.625 C 24.535156 -9.550781 24.128906 -8.363281 23.484375 -7.0625 C 22.847656 -5.769531 21.992188 -4.550781 20.921875 -3.40625 C 19.847656 -2.269531 18.5625 -1.332031 17.0625 -0.59375 C 15.5625 0.144531 13.878906 0.515625 12.015625 0.515625 Z M 12.015625 0.515625 "/></g></g></g><g fill="#ff5757" fill-opacity="1"><g transform="translate(77.222379, 53.518905)"><g><path d="M 23.875 0.515625 C 20.28125 0.515625 17.117188 -0.21875 14.390625 -1.6875 C 11.671875 -3.15625 9.394531 -5.15625 7.5625 -7.6875 C 5.726562 -10.226562 4.351562 -13.117188 3.4375 -16.359375 C 2.53125 -19.609375 2.078125 -23.015625 2.078125 -26.578125 C 2.078125 -30.265625 2.609375 -33.671875 3.671875 -36.796875 C 4.742188 -39.921875 6.304688 -42.648438 8.359375 -44.984375 C 10.421875 -47.316406 12.910156 -49.117188 15.828125 -50.390625 C 18.742188 -51.671875 22.03125 -52.3125 25.6875 -52.3125 C 27.488281 -52.3125 29.222656 -52.050781 30.890625 -51.53125 C 32.566406 -51.019531 34.0625 -50.347656 35.375 -49.515625 C 36.6875 -48.691406 37.65625 -47.796875 38.28125 -46.828125 L 33.203125 -40.765625 C 31.160156 -43.179688 28.738281 -45.125 25.9375 -46.59375 C 23.144531 -48.0625 20.285156 -48.796875 17.359375 -48.796875 C 15.003906 -48.796875 12.988281 -48.066406 11.3125 -46.609375 C 9.644531 -45.160156 8.367188 -43.164062 7.484375 -40.625 C 6.597656 -38.09375 6.15625 -35.171875 6.15625 -31.859375 C 6.15625 -28.578125 6.546875 -25.453125 7.328125 -22.484375 C 8.109375 -19.515625 9.273438 -16.878906 10.828125 -14.578125 C 12.378906 -12.285156 14.285156 -10.472656 16.546875 -9.140625 C 18.804688 -7.804688 21.40625 -7.140625 24.34375 -7.140625 C 26.519531 -7.140625 28.34375 -7.40625 29.8125 -7.9375 C 31.28125 -8.476562 32.4375 -9.085938 33.28125 -9.765625 C 34.125 -10.441406 34.726562 -11.046875 35.09375 -11.578125 C 35.457031 -12.109375 35.640625 -12.375 35.640625 -12.375 L 39.78125 -5.75 C 39.78125 -5.75 39.457031 -5.425781 38.8125 -4.78125 C 38.175781 -4.144531 37.203125 -3.421875 35.890625 -2.609375 C 34.578125 -1.804688 32.921875 -1.082031 30.921875 -0.4375 C 28.921875 0.195312 26.570312 0.515625 23.875 0.515625 Z M 23.875 0.515625 "/></g></g></g><g fill="#ff5757" fill-opacity="1"><g transform="translate(116.229462, 53.518905)"><g><path d="M 1.546875 -6.9375 C 1.546875 -8.5625 1.925781 -10.109375 2.6875 -11.578125 C 3.445312 -13.046875 4.472656 -14.4375 5.765625 -15.75 C 7.066406 -17.0625 8.53125 -18.273438 10.15625 -19.390625 C 11.78125 -20.515625 13.4375 -21.546875 15.125 -22.484375 C 13.4375 -23.203125 11.734375 -23.785156 10.015625 -24.234375 C 8.304688 -24.691406 6.734375 -25.039062 5.296875 -25.28125 C 3.867188 -25.519531 2.707031 -25.65625 1.8125 -25.6875 C 2.332031 -27.863281 3.332031 -29.691406 4.8125 -31.171875 C 6.300781 -32.660156 8.03125 -33.789062 10 -34.5625 C 11.96875 -35.34375 13.9375 -35.734375 15.90625 -35.734375 C 18.488281 -35.734375 20.53125 -35.351562 22.03125 -34.59375 C 23.539062 -33.832031 24.707031 -32.785156 25.53125 -31.453125 C 26.363281 -30.128906 27.003906 -28.628906 27.453125 -26.953125 C 27.898438 -25.285156 28.347656 -23.519531 28.796875 -21.65625 C 29.421875 -19.195312 29.984375 -16.863281 30.484375 -14.65625 C 30.984375 -12.445312 31.515625 -10.175781 32.078125 -7.84375 C 32.648438 -5.507812 33.285156 -2.894531 33.984375 0 L 26.359375 0 L 26.359375 -10.984375 C 26.359375 -9.804688 26.039062 -8.550781 25.40625 -7.21875 C 24.769531 -5.894531 23.828125 -4.644531 22.578125 -3.46875 C 21.335938 -2.289062 19.789062 -1.332031 17.9375 -0.59375 C 16.09375 0.144531 13.984375 0.515625 11.609375 0.515625 C 9.984375 0.515625 8.398438 0.234375 6.859375 -0.328125 C 5.328125 -0.898438 4.054688 -1.75 3.046875 -2.875 C 2.046875 -4 1.546875 -5.351562 1.546875 -6.9375 Z M 25.59375 -10.984375 C 25.59375 -12.609375 25.21875 -14.066406 24.46875 -15.359375 C 23.726562 -16.648438 22.726562 -17.8125 21.46875 -18.84375 C 20.207031 -19.882812 18.800781 -20.785156 17.25 -21.546875 C 15.726562 -20.410156 14.328125 -19.132812 13.046875 -17.71875 C 11.773438 -16.300781 10.757812 -14.789062 10 -13.1875 C 9.238281 -11.582031 8.859375 -9.878906 8.859375 -8.078125 C 8.859375 -6.796875 9.191406 -5.671875 9.859375 -4.703125 C 10.535156 -3.742188 11.453125 -2.976562 12.609375 -2.40625 C 13.765625 -1.832031 15.050781 -1.546875 16.46875 -1.546875 C 17.71875 -1.546875 18.894531 -1.875 20 -2.53125 C 21.101562 -3.1875 22.078125 -4.015625 22.921875 -5.015625 C 23.765625 -6.023438 24.421875 -7.0625 24.890625 -8.125 C 25.359375 -9.195312 25.59375 -10.148438 25.59375 -10.984375 Z M 16.21875 -23.09375 C 18.1875 -24.101562 20.066406 -24.953125 21.859375 -25.640625 C 23.648438 -26.328125 25.132812 -26.84375 26.3125 -27.1875 C 26.175781 -29.332031 25.453125 -30.910156 24.140625 -31.921875 C 22.828125 -32.941406 21.304688 -33.453125 19.578125 -33.453125 C 17.953125 -33.453125 16.519531 -33.203125 15.28125 -32.703125 C 14.039062 -32.203125 12.992188 -31.582031 12.140625 -30.84375 C 11.296875 -30.101562 10.65625 -29.351562 10.21875 -28.59375 C 9.789062 -27.832031 9.578125 -27.191406 9.578125 -26.671875 C 9.578125 -26.429688 9.632812 -26.140625 9.75 -25.796875 C 9.875 -25.453125 10.164062 -25.207031 10.625 -25.0625 C 12.625 -24.476562 14.488281 -23.820312 16.21875 -23.09375 Z M 26.359375 -26.3125 C 25.117188 -25.9375 23.78125 -25.394531 22.34375 -24.6875 C 20.914062 -23.976562 19.507812 -23.140625 18.125 -22.171875 C 20.582031 -20.890625 22.566406 -19.34375 24.078125 -17.53125 C 25.597656 -15.71875 26.359375 -13.535156 26.359375 -10.984375 Z M 26.359375 -26.3125 "/></g></g></g><g fill="#ff5757" fill-opacity="1"><g transform="translate(149.69371, 53.518905)"><g><path d="M 0 -32.015625 C 1.28125 -32.179688 2.609375 -32.453125 3.984375 -32.828125 C 5.367188 -33.210938 6.691406 -33.664062 7.953125 -34.1875 C 9.210938 -34.707031 10.289062 -35.222656 11.1875 -35.734375 L 11.1875 -24.609375 C 11.46875 -25.816406 11.890625 -27.066406 12.453125 -28.359375 C 13.023438 -29.648438 13.769531 -30.859375 14.6875 -31.984375 C 15.601562 -33.109375 16.695312 -34.015625 17.96875 -34.703125 C 19.25 -35.390625 20.734375 -35.734375 22.421875 -35.734375 C 24.535156 -35.734375 26.300781 -35.300781 27.71875 -34.4375 L 24.96875 -27.65625 C 24.070312 -28.101562 23.140625 -28.488281 22.171875 -28.8125 C 21.203125 -29.144531 20.128906 -29.3125 18.953125 -29.3125 C 17.609375 -29.3125 16.347656 -28.957031 15.171875 -28.25 C 14.003906 -27.539062 13.046875 -26.519531 12.296875 -25.1875 C 11.554688 -23.863281 11.1875 -22.269531 11.1875 -20.40625 L 11.1875 0 L 3.671875 0 L 3.671875 -28.390625 C 3.671875 -29.804688 3.378906 -30.71875 2.796875 -31.125 C 2.210938 -31.539062 1.28125 -31.75 0 -31.75 Z M 0 -32.015625 "/></g></g></g><g fill="#ff5757" fill-opacity="1"><g transform="translate(176.88988, 53.518905)"><g><path d="M 4.296875 -34.4375 L 0 -34.4375 L 11.90625 -46.40625 C 11.90625 -44.332031 11.894531 -42.378906 11.875 -40.546875 C 11.863281 -38.722656 11.859375 -36.945312 11.859375 -35.21875 L 17.25 -35.21875 L 17.25 -34.4375 L 11.859375 -34.4375 C 11.859375 -31.613281 11.847656 -28.851562 11.828125 -26.15625 C 11.816406 -23.46875 11.8125 -20.671875 11.8125 -17.765625 C 11.8125 -14.867188 11.8125 -11.691406 11.8125 -8.234375 C 11.8125 -7.410156 11.90625 -6.625 12.09375 -5.875 C 12.28125 -5.132812 12.632812 -4.53125 13.15625 -4.0625 C 13.675781 -3.59375 14.453125 -3.359375 15.484375 -3.359375 C 15.972656 -3.359375 16.429688 -3.394531 16.859375 -3.46875 C 17.285156 -3.539062 17.691406 -3.644531 18.078125 -3.78125 L 18.1875 -3.515625 C 17.425781 -3.066406 16.523438 -2.523438 15.484375 -1.890625 C 14.453125 -1.253906 13.476562 -0.691406 12.5625 -0.203125 C 11.644531 0.273438 10.925781 0.515625 10.40625 0.515625 C 9.0625 0.515625 7.929688 0.207031 7.015625 -0.40625 C 6.097656 -1.03125 5.414062 -1.828125 4.96875 -2.796875 C 4.519531 -3.765625 4.296875 -4.765625 4.296875 -5.796875 Z M 4.296875 -34.4375 "/></g></g></g></g></g><g clip-path="url(#ecf7a5f94a)"><path fill="#ff5757" d="M 248.574219 20.484375 C 254.757812 20.484375 260.234375 22.960938 264.296875 27.023438 C 268.359375 30.914062 270.835938 36.5625 270.835938 42.746094 C 270.835938 48.929688 268.359375 54.40625 264.296875 58.464844 C 260.234375 62.527344 254.757812 65.003906 248.574219 65.003906 C 242.390625 65.003906 236.742188 62.527344 232.683594 58.464844 C 228.792969 54.40625 226.144531 48.929688 226.144531 42.746094 C 226.144531 40.449219 226.5 38.328125 227.207031 36.207031 L 229.851562 36.207031 C 229.144531 38.148438 228.621094 40.449219 228.621094 42.746094 C 228.621094 48.222656 230.914062 53.160156 234.449219 56.878906 C 238.160156 60.417969 243.109375 62.527344 248.585938 62.527344 C 254.0625 62.527344 259.003906 60.40625 262.539062 56.878906 C 266.246094 53.171875 268.371094 48.222656 268.371094 42.746094 C 268.371094 37.269531 266.246094 32.328125 262.539062 28.609375 C 259.003906 25.074219 254.0625 22.777344 248.585938 22.777344 C 243.109375 22.777344 238.160156 25.082031 234.449219 28.609375 C 233.742188 29.488281 233.035156 30.378906 232.328125 31.257812 L 229.328125 31.257812 C 230.386719 29.671875 231.449219 28.253906 232.683594 27.011719 C 236.742188 22.960938 242.390625 20.484375 248.574219 20.484375 Z M 252.285156 54.050781 C 253.34375 54.050781 254.222656 54.929688 254.222656 55.992188 C 254.222656 57.050781 253.34375 57.929688 252.285156 57.929688 C 251.222656 57.929688 250.34375 57.050781 250.34375 55.992188 C 250.34375 54.929688 251.234375 54.050781 252.285156 54.050781 Z M 244.867188 54.050781 C 245.929688 54.050781 246.808594 54.929688 246.808594 55.992188 C 246.808594 57.050781 245.929688 57.929688 244.867188 57.929688 C 243.808594 57.929688 242.925781 57.050781 242.925781 55.992188 C 242.925781 54.929688 243.808594 54.050781 244.867188 54.050781 Z M 226.316406 32.5 L 233.027344 32.5 L 240.976562 50.515625 L 257.761719 50.515625 L 257.761719 52.988281 L 239.390625 52.988281 L 231.4375 34.972656 L 226.316406 34.972656 Z M 237.625 39.035156 L 262.710938 39.035156 L 263.589844 37.097656 L 263.945312 36.570312 L 236.5625 36.570312 Z M 238.683594 41.5 L 261.652344 41.5 L 260.589844 43.976562 L 239.746094 43.976562 Z M 240.804688 46.269531 L 259.527344 46.269531 L 259.527344 46.613281 L 258.46875 48.734375 L 241.867188 48.734375 Z M 234.269531 68.53125 L 262.882812 68.53125 L 262.882812 71.003906 L 234.269531 71.003906 Z M 234.269531 68.53125 " fill-opacity="1" fill-rule="nonzero"/></g></svg>